<?xml version="1.0" encoding="UTF-8"?> <!-- Generator: Adobe Illustrator 24.1.1, SVG Export Plug-In . SVG Version: 6.00 Build 0) --> <svg xmlns="http://www.w3.org/2000/svg" xmlns:xlink="http://www.w3.org/1999/xlink" version="1.1" id="Layer_1" x="0px" y="0px" viewBox="0 0 339.9 21.9" style="enable-background:new 0 0 339.9 21.9;" xml:space="preserve"> <g> <path d="M8.7,13.6v3.7h14.4c0.4,0,0.7-0.1,1-0.2c0.2-0.1,0.4-0.4,0.5-0.7h0.6v4.5h-0.6c-0.1-0.3-0.3-0.5-0.5-0.7 c-0.2-0.1-0.6-0.2-1-0.2H2v-0.4c0.5-0.1,0.8-0.2,1-0.4c0.2-0.2,0.3-0.4,0.3-0.6V6.3C3.3,6,3.2,5.8,3,5.7C2.8,5.5,2.5,5.4,2,5.3V4.9 h20.5c0.4,0,0.8-0.1,1-0.2c0.2-0.1,0.4-0.4,0.5-0.7h0.5v4.5H24c-0.1-0.3-0.3-0.6-0.5-0.7c-0.2-0.1-0.6-0.2-1-0.2H8.7V11h8.6 c0.4,0,0.7-0.1,1-0.2c0.2-0.1,0.4-0.4,0.6-0.7h0.5v4.4h-0.5c-0.1-0.3-0.3-0.5-0.5-0.7c-0.2-0.1-0.6-0.2-1-0.2H8.7z"></path> <path d="M68.2,11.9c1.1,0.3,1.9,0.7,2.5,1c1,0.6,1.5,1.5,1.5,2.6c0,1.5-0.8,2.6-2.5,3.4c-1.5,0.7-3.5,1.1-6.1,1.1H47.3v-0.4 c0.5-0.1,0.8-0.2,1-0.4c0.2-0.2,0.3-0.4,0.3-0.6V6.3c0-0.3-0.1-0.5-0.3-0.6c-0.2-0.1-0.5-0.3-1-0.4V4.9h15.9c2.8,0,4.8,0.3,6.1,1 c1.4,0.7,2.1,1.7,2.1,2.9c0,0.7-0.2,1.3-0.7,1.8C70.2,11.1,69.4,11.5,68.2,11.9z M54.1,10.6h8.3c1.3,0,2.2-0.1,2.8-0.3 c0.5-0.2,0.8-0.6,0.8-1.1c0-0.5-0.3-0.9-0.8-1.1c-0.5-0.2-1.5-0.3-2.8-0.3h-8.3V10.6z M54.1,17.3h8.5c2.7,0,4.1-0.7,4.1-2 c0-1.3-1.4-2-4.1-2h-8.5V17.3z"></path> <path d="M111.4,16.3h-10.4l-1.2,1.6c-0.3,0.4-0.4,0.7-0.4,0.9c0,0.4,0.4,0.7,1.3,0.8v0.4h-8.3v-0.4c0.5-0.1,0.9-0.2,1.1-0.3 c0.3-0.2,0.5-0.5,0.9-0.9l8.3-11.2c0.3-0.4,0.5-0.8,0.5-1.1c0-0.4-0.4-0.7-1.1-0.9V4.9h8.8v0.4c-0.7,0.2-1.1,0.5-1.1,0.9 c0,0.3,0.2,0.7,0.5,1.1l8.6,10.9c0.5,0.6,0.8,1,1.1,1.1c0.3,0.2,0.7,0.3,1.2,0.4v0.4h-9.3v-0.4c0.9-0.1,1.3-0.4,1.3-0.8 c0-0.3-0.2-0.6-0.5-1L111.4,16.3z M109.7,14.2L106,9.3l-3.5,4.9H109.7z"></path> <path d="M147.9,10.1v8.6c0,0.3,0.1,0.5,0.3,0.6c0.2,0.2,0.5,0.3,1,0.4v0.4h-7.5v-0.4c0.5-0.1,0.8-0.2,1-0.4 c0.2-0.2,0.3-0.4,0.3-0.6V6.3c0-0.3-0.1-0.5-0.3-0.6c-0.2-0.1-0.5-0.3-1-0.4V4.9h8.7v0.4c-0.6,0.1-0.9,0.3-0.9,0.5 c0,0.2,0.2,0.5,0.6,0.8l12.2,8.1V6.3c0-0.3-0.1-0.5-0.3-0.6c-0.2-0.1-0.5-0.3-1-0.4V4.9h7.5v0.4c-0.5,0.1-0.8,0.2-1,0.4 c-0.2,0.1-0.3,0.4-0.3,0.6v12.4c0,0.3,0.1,0.5,0.3,0.6c0.2,0.1,0.5,0.3,1,0.4v0.4h-8.1v-0.4c0.6-0.1,0.9-0.2,0.9-0.5 c0-0.1-0.1-0.3-0.2-0.4c-0.2-0.1-0.5-0.4-1.1-0.8L147.9,10.1z"></path> <path d="M198,6.3v12.4c0,0.3,0.1,0.5,0.3,0.6c0.2,0.1,0.5,0.3,1,0.4v0.4h-8v-0.4c0.5-0.1,0.8-0.2,1-0.4c0.2-0.2,0.3-0.4,0.3-0.6 V6.3c0-0.3-0.1-0.5-0.3-0.6c-0.2-0.1-0.5-0.3-1-0.4V4.9h8v0.4c-0.5,0.1-0.8,0.2-1,0.4C198.1,5.8,198,6,198,6.3z"></path> <path d="M243.8,6.3l-2.7,3.5l-0.5-0.2c0-0.3-0.1-0.5-0.4-0.7c-0.8-0.5-1.9-0.8-3.4-1.1c-1.5-0.3-3-0.4-4.6-0.4 c-1.3,0-2.5,0.1-3.5,0.4c-1.5,0.4-2.2,0.9-2.2,1.5c0,0.4,0.4,0.8,1.1,0.9c0.7,0.2,2.1,0.3,4.1,0.4l3.2,0.2c2.8,0.1,4.9,0.5,6.4,1.1 c0.8,0.3,1.5,0.8,2,1.3c0.7,0.7,1,1.4,1,2.3c0,1.5-1,2.8-3.1,3.7c-2,0.9-4.7,1.3-8.1,1.3c-3.4,0-6.7-0.5-9.9-1.4 c-0.2-0.1-0.4-0.1-0.5-0.1c-0.3,0-0.5,0.1-0.8,0.3l-0.5-0.1l2.3-3.7l0.5,0.1c0,0.1,0,0.1,0,0.1c0,0.2,0.1,0.4,0.4,0.6 c0.7,0.4,1.8,0.7,3.5,1c1.7,0.3,3.3,0.4,4.9,0.4c1.4,0,2.7-0.1,3.9-0.4c1.4-0.3,2.1-0.8,2.1-1.5c0-0.5-0.5-0.9-1.5-1.1 c-0.6-0.1-1.8-0.3-3.5-0.4l-3.2-0.2c-1.7-0.1-3-0.2-3.9-0.4c-0.9-0.1-1.7-0.4-2.4-0.6c-0.9-0.4-1.5-0.9-2-1.5 c-0.5-0.6-0.7-1.3-0.7-2c0-1.7,1.1-2.9,3.2-3.8c1.9-0.8,4.4-1.2,7.2-1.2c1.6,0,3,0.1,4.4,0.3c1.3,0.2,3,0.6,4.8,1.2 c0.6,0.2,0.9,0.3,1.2,0.3c0.2,0,0.5-0.1,0.8-0.3L243.8,6.3z"></path> <path d="M278.8,7.7v11c0,0.3,0.1,0.5,0.3,0.6c0.2,0.1,0.5,0.3,1,0.4v0.4h-8v-0.4c0.5-0.1,0.8-0.2,1-0.4c0.2-0.2,0.3-0.4,0.3-0.6 v-11h-6.7c-0.4,0-0.8,0.1-1,0.2c-0.2,0.1-0.4,0.4-0.5,0.7h-0.5V4.1h0.5c0.1,0.3,0.3,0.5,0.5,0.7c0.2,0.1,0.6,0.2,1,0.2h18.8 c0.4,0,0.8-0.1,1-0.2c0.2-0.1,0.4-0.4,0.5-0.7h0.5v4.5H287c-0.1-0.3-0.3-0.5-0.5-0.7c-0.2-0.1-0.6-0.2-1-0.2H278.8z"></path> <path d="M325.8,16.3h-10.4l-1.2,1.6c-0.3,0.4-0.4,0.7-0.4,0.9c0,0.4,0.4,0.7,1.3,0.8v0.4h-8.3v-0.4c0.5-0.1,0.9-0.2,1.1-0.3 c0.3-0.2,0.5-0.5,0.9-0.9L317,7.3c0.3-0.4,0.5-0.8,0.5-1.1c0-0.4-0.4-0.7-1.1-0.9V4.9h8.8v0.4c-0.7,0.2-1.1,0.5-1.1,0.9 c0,0.3,0.2,0.7,0.5,1.1l8.6,10.9c0.5,0.6,0.8,1,1.1,1.1c0.3,0.2,0.7,0.3,1.2,0.4v0.4h-9.3v-0.4c0.9-0.1,1.3-0.4,1.3-0.8 c0-0.3-0.2-0.6-0.5-1L325.8,16.3z M324.1,14.2l-3.7-4.9l-3.5,4.9H324.1z"></path> </g> </svg> 